<svg width="32" height="32" viewBox="0 0 32 32" fill="none" xmlns="http://www.w3.org/2000/svg">
<g clip-path="url(#clip0)">
<path d="M26.5478 11.51C26.2214 11.398 25.8923 11.2943 25.5605 11.1989C25.6155 10.9754 25.6664 10.751 25.7131 10.5256C26.4604 6.89806 25.9717 3.97575 24.3032 3.01376C22.7035 2.0911 20.0871 3.05312 17.4446 5.35262C17.1843 5.57973 16.9297 5.8133 16.6811 6.05334C16.5146 5.89377 16.3452 5.73733 16.1729 5.58401C13.4036 3.12509 10.6277 2.089 8.96094 3.05383C7.36271 3.97903 6.88931 6.72641 7.56208 10.1642C7.62902 10.5046 7.70457 10.8432 7.78875 11.1799C7.39598 11.2915 7.01664 11.4104 6.65372 11.5368C3.40702 12.6688 1.3335 14.4429 1.3335 16.283C1.3335 18.1836 3.5593 20.0899 6.94116 21.2456C7.21538 21.3389 7.4918 21.4253 7.7704 21.5049C7.67992 21.8675 7.59962 22.2325 7.5295 22.5997C6.88808 25.9778 7.38903 28.66 8.98306 29.5795C10.6295 30.5288 13.3927 29.553 16.0835 27.201C16.2962 27.0151 16.5095 26.8185 16.7234 26.6112C16.9927 26.8709 17.269 27.1231 17.5524 27.3675C20.1587 29.6103 22.7328 30.516 24.3255 29.594C25.9704 28.6418 26.5049 25.7603 25.8108 22.2546C25.7579 21.9868 25.6966 21.7135 25.6269 21.4348C25.821 21.3775 26.0111 21.3182 26.1972 21.2567C29.7129 20.0921 32.0002 18.209 32.0002 16.283C32.0002 14.4362 29.8599 12.6502 26.5478 11.51ZM18.3047 6.34097C20.5688 4.37055 22.6848 3.59264 23.6489 4.14868C24.6758 4.74096 25.0752 7.12922 24.43 10.2612C24.3877 10.4653 24.3417 10.6685 24.2921 10.8709C22.9411 10.5647 21.5713 10.3483 20.1917 10.2231C19.4014 9.08763 18.5353 8.00674 17.5995 6.98781C17.8292 6.76638 18.0642 6.55077 18.3047 6.34097ZM10.3883 17.8549C10.6656 18.3906 10.9555 18.9195 11.2577 19.4417C11.5661 19.9743 11.887 20.4992 12.2205 21.0166C11.2713 20.9136 10.328 20.7619 9.39431 20.5622C9.66506 19.6879 9.99866 18.7791 10.3883 17.8549ZM10.3868 14.7738C10.0053 13.8689 9.67892 12.9793 9.41236 12.1202C10.2873 11.9243 11.2204 11.7643 12.1926 11.6428C11.8671 12.1504 11.5538 12.6654 11.2524 13.1879C10.9516 13.7097 10.6631 14.2383 10.3868 14.7738ZM11.0832 16.3145C11.4869 15.4743 11.9217 14.6502 12.3876 13.8422V13.8425C12.8531 13.0348 13.3488 12.2458 13.8745 11.4752C14.7865 11.4063 15.7217 11.3702 16.667 11.3702C17.6165 11.3702 18.5528 11.4066 19.4646 11.476C19.9847 12.2448 20.4772 13.0312 20.9421 13.8353C21.4094 14.6409 21.8501 15.4611 22.2642 16.2959C21.8545 17.1387 21.4153 17.9661 20.9465 18.7782H20.9463C20.4818 19.5852 19.9914 20.3764 19.4751 21.1519C18.5653 21.2169 17.625 21.2504 16.6668 21.2504C15.7126 21.2504 14.7843 21.2207 13.8903 21.1628C13.3609 20.3895 12.8613 19.597 12.3915 18.7854C11.9243 17.9786 11.4882 17.1549 11.0832 16.3145H11.0832ZM22.0812 19.4326C22.3897 18.8977 22.6861 18.3561 22.9706 17.8078C23.3603 18.6886 23.7041 19.589 24.0004 20.5055C23.056 20.7177 22.1011 20.8805 21.1397 20.9931C21.4639 20.4792 21.7777 19.9591 22.0812 19.4326H22.0812ZM22.9581 14.7747C22.6747 14.2369 22.3807 13.705 22.076 13.1789C21.7762 12.6611 21.4653 12.1499 21.1434 11.6453C22.122 11.7688 23.0594 11.933 23.9397 12.134C23.6571 13.0302 23.3295 13.9115 22.9581 14.7747H22.9581ZM16.6815 7.92467C17.3194 8.62001 17.9217 9.34713 18.4862 10.1032C17.2787 10.0462 16.0705 10.0459 14.8616 10.1024C15.4575 9.31675 16.0678 8.58684 16.6815 7.92467ZM9.61728 4.18763C10.6433 3.59372 12.9119 4.44061 15.303 6.56363C15.4558 6.69935 15.6093 6.84144 15.7631 6.98843C14.8218 8.00717 13.9492 9.08717 13.1507 10.2213C11.7744 10.3448 10.4074 10.5572 9.05854 10.8573C8.98031 10.5442 8.91006 10.2292 8.84776 9.91245V9.91258C8.27135 6.96703 8.65408 4.74522 9.61728 4.18763ZM8.12192 20.243C7.8677 20.1702 7.61535 20.0912 7.36488 20.006C6.06619 19.5974 4.85377 18.9533 3.78816 18.106C3.48287 17.8965 3.22377 17.6266 3.02689 17.3131C2.83001 16.9995 2.69953 16.6489 2.64351 16.283C2.64351 15.1664 4.30838 13.742 7.08507 12.7739C7.43358 12.6529 7.78542 12.5422 8.14056 12.4418C8.55286 13.7644 9.05217 15.0582 9.63523 16.3149C9.04485 17.5895 8.53931 18.9017 8.12192 20.243ZM15.2214 26.2146C14.2187 27.1355 13.055 27.864 11.7885 28.3637H11.7884C11.4545 28.5235 11.0913 28.6131 10.7214 28.627C10.3515 28.6409 9.98262 28.5788 9.63764 28.4446C8.67023 27.8868 8.26823 25.7329 8.81667 22.8441C8.88189 22.5027 8.95655 22.1633 9.04067 21.8259C10.4031 22.1186 11.7838 22.3185 13.1733 22.4242C13.9786 23.5648 14.858 24.6513 15.8057 25.6766C15.6154 25.8606 15.4206 26.04 15.2214 26.2146ZM16.7177 24.7338C16.0968 24.0638 15.4775 23.3228 14.8726 22.5257C15.4597 22.5488 16.0578 22.5604 16.6668 22.5604C17.2919 22.5604 17.909 22.5467 18.518 22.5193C17.9562 23.2878 17.3553 24.0269 16.7177 24.7338V24.7338ZM24.6731 26.5565C24.6448 26.9256 24.5411 27.285 24.3684 27.6124C24.1957 27.9399 23.9577 28.2284 23.6691 28.4602C22.7026 29.0197 20.6357 28.2925 18.4069 26.3745C18.1514 26.1546 17.8943 25.9203 17.6358 25.6715C18.5652 24.6426 19.424 23.5521 20.2063 22.4075C21.6038 22.2896 22.9916 22.0757 24.3597 21.7673C24.4222 22.0197 24.4775 22.267 24.5257 22.5091C24.8228 23.8378 24.8727 25.2098 24.6731 26.5565V26.5565ZM25.7853 20.0133H25.7852C25.6175 20.0688 25.4455 20.1224 25.2701 20.1744C24.8413 18.8457 24.3224 17.5477 23.7172 16.2894C24.2995 15.048 24.7982 13.7691 25.2097 12.4611C25.5234 12.552 25.8279 12.6477 26.1213 12.7488C28.9592 13.7256 30.6902 15.17 30.6902 16.2829C30.6902 17.4685 28.8207 19.0075 25.7853 20.0134V20.0133Z" fill="#5928E5"/>
<path d="M16.6666 13.5444C17.2083 13.5444 17.7377 13.705 18.1881 14.0059C18.6384 14.3068 18.9894 14.7345 19.1967 15.2349C19.404 15.7353 19.4582 16.2859 19.3526 16.8171C19.2469 17.3484 18.9861 17.8363 18.6031 18.2193C18.2201 18.6023 17.7322 18.8631 17.2009 18.9688C16.6697 19.0744 16.1191 19.0202 15.6187 18.8129C15.1183 18.6056 14.6906 18.2546 14.3897 17.8043C14.0888 17.3539 13.9282 16.8245 13.9282 16.2828C13.9282 15.5566 14.2167 14.86 14.7303 14.3465C15.2438 13.8329 15.9404 13.5444 16.6666 13.5444Z" fill="#5928E5"/>
</g>
<defs>
<clipPath id="clip0">
<rect width="30.6667" height="27.2846" fill="white" transform="translate(1.3335 2.6665)"/>
</clipPath>
</defs>
</svg>
