<svg width="32" height="32" viewBox="0 0 32 32" fill="none" xmlns="http://www.w3.org/2000/svg">
<path d="M15.5557 16.6669C15.5557 14.5806 17.247 12.8892 19.3334 12.8892C21.4198 12.8892 23.1112 14.5805 23.1112 16.6669C23.1112 18.7533 21.4198 20.4447 19.3334 20.4447C17.247 20.4447 15.5557 18.7533 15.5557 16.6669Z" fill="#5928E5"/>
<path d="M8 24.2226C8 22.1362 9.69137 20.4448 11.7778 20.4448H15.5556V24.2226C15.5556 26.309 13.8642 28.0004 11.7778 28.0004C9.69137 28.0004 8 26.309 8 24.2226Z" fill="#5928E5"/>
<path d="M15.5557 5.3335V12.8891H19.3334C21.4199 12.8891 23.1112 11.1977 23.1112 9.11127C23.1112 7.02486 21.4199 5.3335 19.3334 5.3335H15.5557Z" fill="#5928E5"/>
<path d="M8 9.11138C8 11.1978 9.69137 12.8892 11.7778 12.8892H15.5556V5.3336L11.7778 5.3336C9.69137 5.3336 8 7.02497 8 9.11138Z" fill="#5928E5"/>
<path d="M8 16.667C8 18.7535 9.69137 20.4448 11.7778 20.4448H15.5556V12.8893H11.7778C9.69137 12.8893 8 14.5806 8 16.667Z" fill="#5928E5"/>
</svg>
