<svg width="24" height="25" viewBox="0 0 24 25" fill="none" xmlns="http://www.w3.org/2000/svg">
<path d="M20.023 15.988C19.393 15.973 18.6 15.936 18.099 15.848C17.557 15.752 16.905 15.566 16.446 15.423C16.086 15.311 15.694 15.41 15.427 15.676L13.21 17.88C11.678 17.073 10.451 16.133 9.412 15.088C8.367 14.049 7.427 12.822 6.62 11.29L8.824 9.072C9.09 8.805 9.189 8.413 9.077 8.053C8.935 7.595 8.748 6.943 8.653 6.401C8.564 5.9 8.528 5.107 8.512 4.477C8.499 3.932 8.055 3.5 7.51 3.5H4C3.562 3.5 3 3.828 3 4.5C3 9.039 4.84 13.374 7.966 16.534C11.126 19.66 15.461 21.5 20 21.5C20.672 21.5 21 20.938 21 20.5V16.99C21 16.445 20.568 16.001 20.023 15.988Z" fill="white"/>
</svg>
